<svg xmlns="http://www.w3.org/2000/svg" width="500" height="400" viewBox="0 0 500 400">
  <!-- Background -->
  <rect width="500" height="400" fill="#f8f9fa"/>
  
  <!-- Code editor window -->
  <rect x="100" y="100" width="300" height="200" rx="8" fill="#2c3e50"/>
  <rect x="110" y="110" width="280" height="180" rx="4" fill="#ecf0f1"/>
  
  <!-- Code lines -->
  <rect x="130" y="130" width="60" height="3" fill="#27ae60"/>
  <rect x="130" y="140" width="80" height="3" fill="#e74c3c"/>
  <rect x="130" y="150" width="70" height="3" fill="#f39c12"/>
  <rect x="130" y="160" width="65" height="3" fill="#9b59b6"/>
  <rect x="130" y="170" width="75" height="3" fill="#3498db"/>
  <rect x="130" y="180" width="55" height="3" fill="#e67e22"/>
  <rect x="130" y="190" width="85" height="3" fill="#1abc9c"/>
  <rect x="130" y="200" width="40" height="3" fill="#e74c3c"/>
  <rect x="130" y="210" width="90" height="3" fill="#f39c12"/>
  <rect x="130" y="220" width="50" height="3" fill="#9b59b6"/>
  <rect x="130" y="230" width="70" height="3" fill="#3498db"/>
  <rect x="130" y="240" width="60" height="3" fill="#e67e22"/>
  <rect x="130" y="250" width="75" height="3" fill="#1abc9c"/>
  
  <!-- Floating code symbols -->
  <text x="50" y="80" font-family="monospace" font-size="16" fill="#003459" opacity="0.7">&lt;/&gt;</text>
  <text x="400" y="70" font-family="monospace" font-size="18" fill="#003459" opacity="0.7">{ }</text>
  <text x="80" y="350" font-family="monospace" font-size="14" fill="#003459" opacity="0.6">const</text>
  <text x="380" y="340" font-family="monospace" font-size="14" fill="#003459" opacity="0.6">function</text>
  <text x="60" y="320" font-family="monospace" font-size="14" fill="#003459" opacity="0.6">return</text>
  <text x="420" y="310" font-family="monospace" font-size="14" fill="#003459" opacity="0.6">import</text>
  
  <!-- Connection lines -->
  <line x1="80" y1="80" x2="120" y2="120" stroke="#003459" stroke-width="1" opacity="0.3"/>
  <line x1="420" y1="70" x2="380" y2="110" stroke="#003459" stroke-width="1" opacity="0.3"/>
  <line x1="80" y1="320" x2="120" y2="280" stroke="#003459" stroke-width="1" opacity="0.3"/>
  <line x1="420" y1="310" x2="380" y2="270" stroke="#003459" stroke-width="1" opacity="0.3"/>
  
  <!-- Decorative elements -->
  <circle cx="100" cy="100" r="8" fill="#003459" opacity="0.2"/>
  <circle cx="400" cy="120" r="6" fill="#003459" opacity="0.15"/>
  <circle cx="80" cy="320" r="10" fill="#003459" opacity="0.1"/>
  <circle cx="420" cy="350" r="7" fill="#003459" opacity="0.2"/>
  <circle cx="50" cy="50" r="2" fill="#003459" opacity="0.3"/>
  <circle cx="450" cy="80" r="2" fill="#003459" opacity="0.3"/>
  <circle cx="70" cy="350" r="2" fill="#003459" opacity="0.3"/>
  <circle cx="430" cy="320" r="2" fill="#003459" opacity="0.3"/>
</svg>