<svg xmlns="http://www.w3.org/2000/svg" width="500" height="400" viewBox="0 0 500 400">
  <!-- Background -->
  <rect width="500" height="400" fill="#f8f9fa"/>
  
  <!-- Office desk -->
  <rect x="50" y="250" width="400" height="20" fill="#8B4513"/>
  <rect x="50" y="270" width="400" height="10" fill="#654321"/>
  
  <!-- Computer monitor -->
  <rect x="200" y="150" width="100" height="80" fill="#2c3e50"/>
  <rect x="210" y="160" width="80" height="60" fill="#ecf0f1"/>
  <rect x="220" y="170" width="60" height="40" fill="#2c3e50"/>
  
  <!-- Code on screen -->
  <rect x="230" y="180" width="40" height="3" fill="#27ae60"/>
  <rect x="230" y="185" width="50" height="3" fill="#e74c3c"/>
  <rect x="230" y="190" width="35" height="3" fill="#f39c12"/>
  <rect x="230" y="195" width="45" height="3" fill="#9b59b6"/>
  <rect x="230" y="200" width="30" height="3" fill="#3498db"/>
  
  <!-- Person sitting -->
  <circle cx="250" cy="120" r="25" fill="#ecf0f1"/>
  <rect x="235" y="145" width="30" height="40" fill="#ecf0f1"/>
  
  <!-- Arms -->
  <rect x="220" y="155" width="10" height="25" rx="5" fill="#ecf0f1"/>
  <rect x="270" y="155" width="10" height="25" rx="5" fill="#ecf0f1"/>
  
  <!-- Coffee cup -->
  <rect x="320" y="140" width="12" height="16" rx="6" fill="#e67e22"/>
  <rect x="322" y="142" width="8" height="12" rx="4" fill="#d35400"/>
  
  <!-- Office chair -->
  <rect x="230" y="200" width="40" height="50" fill="#4a4a4a"/>
  <rect x="235" y="205" width="30" height="40" fill="#6a6a6a"/>
  
  <!-- Floating elements -->
  <circle cx="100" cy="100" r="15" fill="#003459" opacity="0.2"/>
  <circle cx="400" cy="80" r="12" fill="#003459" opacity="0.15"/>
  <circle cx="80" cy="320" r="18" fill="#003459" opacity="0.1"/>
  <circle cx="420" cy="350" r="14" fill="#003459" opacity="0.2"/>
</svg>