<svg xmlns="http://www.w3.org/2000/svg" width="500" height="400" viewBox="0 0 500 400">
  <!-- Background -->
  <rect width="500" height="400" fill="#f8f9fa"/>
  
  <!-- Laptop -->
  <rect x="150" y="200" width="200" height="120" rx="8" fill="#2c3e50"/>
  <rect x="160" y="210" width="180" height="100" rx="4" fill="#ecf0f1"/>
  <rect x="170" y="220" width="160" height="80" rx="2" fill="#2c3e50"/>
  
  <!-- Code lines -->
  <rect x="180" y="230" width="60" height="3" fill="#27ae60"/>
  <rect x="180" y="240" width="80" height="3" fill="#e74c3c"/>
  <rect x="180" y="250" width="70" height="3" fill="#f39c12"/>
  <rect x="180" y="260" width="65" height="3" fill="#9b59b6"/>
  <rect x="180" y="270" width="75" height="3" fill="#3498db"/>
  <rect x="180" y="280" width="55" height="3" fill="#e67e22"/>
  <rect x="180" y="290" width="85" height="3" fill="#1abc9c"/>
  
  <!-- Developer figure -->
  <circle cx="250" cy="120" r="25" fill="#ecf0f1"/>
  <rect x="235" y="145" width="30" height="40" fill="#ecf0f1"/>
  
  <!-- Arms -->
  <rect x="220" y="155" width="10" height="25" rx="5" fill="#ecf0f1"/>
  <rect x="270" y="155" width="10" height="25" rx="5" fill="#ecf0f1"/>
  
  <!-- Coffee cup -->
  <rect x="320" y="140" width="12" height="16" rx="6" fill="#e67e22"/>
  <rect x="322" y="142" width="8" height="12" rx="4" fill="#d35400"/>
  
  <!-- Floating elements -->
  <circle cx="100" cy="100" r="15" fill="#003459" opacity="0.2"/>
  <circle cx="400" cy="80" r="12" fill="#003459" opacity="0.15"/>
  <circle cx="80" cy="320" r="18" fill="#003459" opacity="0.1"/>
  <circle cx="420" cy="350" r="14" fill="#003459" opacity="0.2"/>
</svg>