<svg xmlns="http://www.w3.org/2000/svg" width="500" height="400" viewBox="0 0 500 400">
  <defs>
    <linearGradient id="skillGrad1" x1="0%" y1="0%" x2="100%" y2="100%">
      <stop offset="0%" style="stop-color:#003459;stop-opacity:1" />
      <stop offset="100%" style="stop-color:#004d7a;stop-opacity:1" />
    </linearGradient>
    <linearGradient id="skillGrad2" x1="0%" y1="0%" x2="100%" y2="100%">
      <stop offset="0%" style="stop-color:#6c63ff;stop-opacity:0.8" />
      <stop offset="100%" style="stop-color:#6c63ff;stop-opacity:1" />
    </linearGradient>
  </defs>
  
  <!-- Background -->
  <rect width="500" height="400" fill="#f8f9fa" opacity="0.5"/>
  
  <!-- Skill icons and elements -->
  <g transform="translate(250, 200)">
    <!-- React Logo -->
    <circle cx="-120" cy="-80" r="30" fill="url(#skillGrad1)" opacity="0.9"/>
    <circle cx="-120" cy="-80" r="25" fill="none" stroke="#61dafb" stroke-width="3"/>
    <circle cx="-120" cy="-80" r="8" fill="#61dafb"/>
    <g transform="translate(-120, -80)">
      <ellipse cx="0" cy="0" rx="20" ry="6" fill="none" stroke="#61dafb" stroke-width="2" transform="rotate(0)"/>
      <ellipse cx="0" cy="0" rx="20" ry="6" fill="none" stroke="#61dafb" stroke-width="2" transform="rotate(60)"/>
      <ellipse cx="0" cy="0" rx="20" ry="6" fill="none" stroke="#61dafb" stroke-width="2" transform="rotate(120)"/>
    </g>
    
    <!-- JavaScript Logo -->
    <rect x="-60" y="-110" width="40" height="40" rx="5" fill="#f7df1e"/>
    <text x="-40" y="-85" font-family="monospace" font-size="20" fill="#000" text-anchor="middle">JS</text>
    
    <!-- Node.js Logo -->
    <circle cx="0" cy="-80" r="25" fill="#339933"/>
    <text x="0" y="-75" font-family="monospace" font-size="14" fill="#fff" text-anchor="middle">N</text>
    
    <!-- CSS Logo -->
    <rect x="60" y="-110" width="40" height="40" rx="5" fill="#1572b6"/>
    <text x="80" y="-85" font-family="monospace" font-size="16" fill="#fff" text-anchor="middle">CSS</text>
    
    <!-- Database Icon -->
    <rect x="-120" y="-20" width="50" height="30" rx="5" fill="#e74c3c"/>
    <rect x="-115" y="-15" width="40" height="20" fill="#c0392b"/>
    <rect x="-110" y="-10" width="30" height="10" fill="#e74c3c"/>
    
    <!-- Mobile App Icon -->
    <rect x="-60" y="-30" width="25" height="40" rx="3" fill="#9b59b6"/>
    <rect x="-55" y="-25" width="15" height="30" fill="#8e44ad"/>
    <circle cx="-47.5" cy="-10" r="2" fill="#fff"/>
    
    <!-- Web Icon -->
    <circle cx="0" cy="-10" r="20" fill="#3498db"/>
    <path d="M0,-30 L8,-15 L20,-10 L8,-5 L0,10 L-8,-5 L-20,-10 L-8,-15 Z" fill="#2980b9"/>
    
    <!-- API Icon -->
    <rect x="60" y="-30" width="40" height="30" rx="3" fill="#f39c12"/>
    <rect x="65" y="-25" width="30" height="20" fill="#e67e22"/>
    <line x1="70" y1="-20" x2="90" y2="-20" stroke="#fff" stroke-width="2"/>
    <line x1="70" y1="-15" x2="85" y2="-15" stroke="#fff" stroke-width="2"/>
    <line x1="70" y1="-10" x2="90" y2="-10" stroke="#fff" stroke-width="2"/>
    
    <!-- Git Icon -->
    <circle cx="-120" cy="60" r="20" fill="#f05032"/>
    <path d="M-120,40 L-110,50 L-120,60 L-130,50 Z" fill="#d44026"/>
    <path d="M-120,60 L-110,70 L-120,80 L-130,70 Z" fill="#d44026"/>
    <path d="M-140,50 L-130,60 L-140,70 L-150,60 Z" fill="#d44026"/>
    <path d="M-100,50 L-110,60 L-100,70 L-90,60 Z" fill="#d44026"/>
    
    <!-- Docker Icon -->
    <rect x="-60" y="40" width="40" height="30" rx="3" fill="#2496ed"/>
    <rect x="-55" y="45" width="30" height="20" fill="#1e88e5"/>
    <circle cx="-45" cy="55" r="3" fill="#fff"/>
    <circle cx="-35" cy="55" r="3" fill="#fff"/>
    <circle cx="-25" cy="55" r="3" fill="#fff"/>
    
    <!-- Cloud Icon -->
    <ellipse cx="0" cy="60" rx="25" ry="15" fill="#95a5a6"/>
    <ellipse cx="-10" cy="55" rx="15" ry="10" fill="#7f8c8d"/>
    <ellipse cx="10" cy="55" rx="15" ry="10" fill="#7f8c8d"/>
    <ellipse cx="0" cy="50" rx="10" ry="8" fill="#7f8c8d"/>
    
    <!-- Testing Icon -->
    <rect x="60" y="40" width="40" height="30" rx="3" fill="#27ae60"/>
    <path d="M70,50 L75,55 L85,45" stroke="#fff" stroke-width="3" fill="none"/>
    <path d="M70,60 L75,65 L85,55" stroke="#fff" stroke-width="3" fill="none"/>
    <path d="M70,70 L75,75 L85,65" stroke="#fff" stroke-width="3" fill="none"/>
    
    <!-- Connection lines -->
    <line x1="-90" y1="-80" x2="-60" y2="-90" stroke="#003459" stroke-width="1" opacity="0.3"/>
    <line x1="-30" y1="-80" x2="0" y2="-80" stroke="#003459" stroke-width="1" opacity="0.3"/>
    <line x1="30" y1="-90" x2="60" y2="-90" stroke="#003459" stroke-width="1" opacity="0.3"/>
    <line x1="-90" y1="-20" x2="-60" y2="-30" stroke="#003459" stroke-width="1" opacity="0.3"/>
    <line x1="-30" y1="-10" x2="0" y2="-10" stroke="#003459" stroke-width="1" opacity="0.3"/>
    <line x1="30" y1="-10" x2="60" y2="-10" stroke="#003459" stroke-width="1" opacity="0.3"/>
    <line x1="-90" y1="60" x2="-60" y2="40" stroke="#003459" stroke-width="1" opacity="0.3"/>
    <line x1="-30" y1="40" x2="0" y2="60" stroke="#003459" stroke-width="1" opacity="0.3"/>
    <line x1="30" y1="40" x2="60" y2="40" stroke="#003459" stroke-width="1" opacity="0.3"/>
  </g>
  
  <!-- Floating skill labels -->
  <text x="50" y="50" font-family="Arial" font-size="12" fill="#003459" opacity="0.7">React</text>
  <text x="150" y="50" font-family="Arial" font-size="12" fill="#003459" opacity="0.7">JavaScript</text>
  <text x="250" y="50" font-family="Arial" font-size="12" fill="#003459" opacity="0.7">Node.js</text>
  <text x="350" y="50" font-family="Arial" font-size="12" fill="#003459" opacity="0.7">CSS3</text>
  <text x="50" y="150" font-family="Arial" font-size="12" fill="#003459" opacity="0.7">Database</text>
  <text x="150" y="150" font-family="Arial" font-size="12" fill="#003459" opacity="0.7">Mobile</text>
  <text x="250" y="150" font-family="Arial" font-size="12" fill="#003459" opacity="0.7">Web</text>
  <text x="350" y="150" font-family="Arial" font-size="12" fill="#003459" opacity="0.7">API</text>
  <text x="50" y="250" font-family="Arial" font-size="12" fill="#003459" opacity="0.7">Git</text>
  <text x="150" y="250" font-family="Arial" font-size="12" fill="#003459" opacity="0.7">Docker</text>
  <text x="250" y="250" font-family="Arial" font-size="12" fill="#003459" opacity="0.7">Cloud</text>
  <text x="350" y="250" font-family="Arial" font-size="12" fill="#003459" opacity="0.7">Testing</text>
</svg>